<mxfile host="app.diagrams.net" agent="Mozilla/5.0 (Windows NT 10.0; Win64; x64; rv:130.0) Gecko/20100101 Firefox/130.0" version="24.7.16">
  <diagram name="Page-1" id="afEVQHa0MnX4fQcSV5nd">
    <mxGraphModel dx="1050" dy="530" grid="1" gridSize="10" guides="1" tooltips="1" connect="1" arrows="1" fold="1" page="1" pageScale="1" pageWidth="850" pageHeight="1100" math="0" shadow="0">
      <root>
        <mxCell id="0" />
        <mxCell id="1" parent="0" />
        <mxCell id="-bUngEK1YWI-_UwskpIQ-2" value="&lt;font style=&quot;font-size: 16px;&quot;&gt;DB::messageQueue&lt;/font&gt;" style="rounded=0;whiteSpace=wrap;html=1;" vertex="1" parent="1">
          <mxGeometry x="50" y="380" width="200" height="80" as="geometry" />
        </mxCell>
        <mxCell id="-bUngEK1YWI-_UwskpIQ-3" value="" style="endArrow=classic;html=1;rounded=0;exitX=1;exitY=0.5;exitDx=0;exitDy=0;" edge="1" parent="1" source="-bUngEK1YWI-_UwskpIQ-5">
          <mxGeometry width="50" height="50" relative="1" as="geometry">
            <mxPoint x="410" y="450" as="sourcePoint" />
            <mxPoint x="410" y="420" as="targetPoint" />
          </mxGeometry>
        </mxCell>
        <mxCell id="-bUngEK1YWI-_UwskpIQ-4" value="" style="endArrow=classic;html=1;rounded=0;exitX=1;exitY=0.5;exitDx=0;exitDy=0;" edge="1" parent="1" source="-bUngEK1YWI-_UwskpIQ-2" target="-bUngEK1YWI-_UwskpIQ-5">
          <mxGeometry width="50" height="50" relative="1" as="geometry">
            <mxPoint x="250" y="420" as="sourcePoint" />
            <mxPoint x="410" y="420" as="targetPoint" />
          </mxGeometry>
        </mxCell>
        <mxCell id="-bUngEK1YWI-_UwskpIQ-5" value="&lt;font style=&quot;font-size: 16px;&quot;&gt;obj.Message&lt;/font&gt;" style="rounded=0;whiteSpace=wrap;html=1;" vertex="1" parent="1">
          <mxGeometry x="370" y="380" width="160" height="80" as="geometry" />
        </mxCell>
        <mxCell id="-bUngEK1YWI-_UwskpIQ-6" value="" style="endArrow=classic;html=1;rounded=0;exitX=1;exitY=0.5;exitDx=0;exitDy=0;entryX=0;entryY=0.5;entryDx=0;entryDy=0;" edge="1" parent="1">
          <mxGeometry width="50" height="50" relative="1" as="geometry">
            <mxPoint x="530" y="409" as="sourcePoint" />
            <mxPoint x="650" y="409" as="targetPoint" />
          </mxGeometry>
        </mxCell>
        <mxCell id="-bUngEK1YWI-_UwskpIQ-7" value="&lt;font style=&quot;font-size: 16px;&quot;&gt;::user&lt;/font&gt;" style="rounded=0;whiteSpace=wrap;html=1;" vertex="1" parent="1">
          <mxGeometry x="650" y="380" width="160" height="80" as="geometry" />
        </mxCell>
        <mxCell id="-bUngEK1YWI-_UwskpIQ-8" value="message" style="text;html=1;align=center;verticalAlign=middle;resizable=0;points=[];autosize=1;strokeColor=none;fillColor=none;" vertex="1" parent="1">
          <mxGeometry x="275" y="390" width="70" height="30" as="geometry" />
        </mxCell>
        <mxCell id="-bUngEK1YWI-_UwskpIQ-9" value="message" style="text;html=1;align=center;verticalAlign=middle;resizable=0;points=[];autosize=1;strokeColor=none;fillColor=none;" vertex="1" parent="1">
          <mxGeometry x="555" y="380" width="70" height="30" as="geometry" />
        </mxCell>
        <mxCell id="-bUngEK1YWI-_UwskpIQ-10" value="message received" style="text;html=1;align=center;verticalAlign=middle;resizable=0;points=[];autosize=1;strokeColor=none;fillColor=none;" vertex="1" parent="1">
          <mxGeometry x="530" y="440" width="120" height="30" as="geometry" />
        </mxCell>
        <mxCell id="-bUngEK1YWI-_UwskpIQ-11" value="" style="endArrow=classic;html=1;rounded=0;exitX=0;exitY=0.75;exitDx=0;exitDy=0;entryX=1;entryY=0.75;entryDx=0;entryDy=0;" edge="1" parent="1" source="-bUngEK1YWI-_UwskpIQ-7" target="-bUngEK1YWI-_UwskpIQ-5">
          <mxGeometry width="50" height="50" relative="1" as="geometry">
            <mxPoint x="410" y="450" as="sourcePoint" />
            <mxPoint x="460" y="400" as="targetPoint" />
          </mxGeometry>
        </mxCell>
        <mxCell id="-bUngEK1YWI-_UwskpIQ-12" value="&lt;font style=&quot;font-size: 16px;&quot;&gt;server&lt;/font&gt;" style="rounded=0;whiteSpace=wrap;html=1;" vertex="1" parent="1">
          <mxGeometry x="50" y="220" width="200" height="80" as="geometry" />
        </mxCell>
        <mxCell id="-bUngEK1YWI-_UwskpIQ-13" value="" style="endArrow=classic;html=1;rounded=0;entryX=1;entryY=0.5;entryDx=0;entryDy=0;exitX=0.5;exitY=0;exitDx=0;exitDy=0;" edge="1" parent="1" source="-bUngEK1YWI-_UwskpIQ-5" target="-bUngEK1YWI-_UwskpIQ-12">
          <mxGeometry width="50" height="50" relative="1" as="geometry">
            <mxPoint x="410" y="420" as="sourcePoint" />
            <mxPoint x="460" y="370" as="targetPoint" />
          </mxGeometry>
        </mxCell>
        <mxCell id="-bUngEK1YWI-_UwskpIQ-14" value="&lt;div&gt;message&lt;/div&gt;&lt;div&gt;received&lt;br&gt;&lt;/div&gt;" style="text;html=1;align=center;verticalAlign=middle;resizable=0;points=[];autosize=1;strokeColor=none;fillColor=none;" vertex="1" parent="1">
          <mxGeometry x="325" y="273" width="70" height="40" as="geometry" />
        </mxCell>
        <mxCell id="-bUngEK1YWI-_UwskpIQ-15" value="" style="endArrow=classic;html=1;rounded=0;exitX=0.5;exitY=1;exitDx=0;exitDy=0;entryX=0.5;entryY=0;entryDx=0;entryDy=0;" edge="1" parent="1" source="-bUngEK1YWI-_UwskpIQ-12" target="-bUngEK1YWI-_UwskpIQ-2">
          <mxGeometry width="50" height="50" relative="1" as="geometry">
            <mxPoint x="410" y="420" as="sourcePoint" />
            <mxPoint x="460" y="370" as="targetPoint" />
          </mxGeometry>
        </mxCell>
        <mxCell id="-bUngEK1YWI-_UwskpIQ-16" value="&lt;font style=&quot;font-size: 16px;&quot;&gt;obj.Message&lt;/font&gt;" style="rounded=0;whiteSpace=wrap;html=1;" vertex="1" parent="1">
          <mxGeometry x="50" y="70" width="200" height="80" as="geometry" />
        </mxCell>
        <mxCell id="-bUngEK1YWI-_UwskpIQ-17" value="" style="endArrow=classic;html=1;rounded=0;exitX=0.5;exitY=1;exitDx=0;exitDy=0;entryX=0.5;entryY=0;entryDx=0;entryDy=0;" edge="1" parent="1">
          <mxGeometry width="50" height="50" relative="1" as="geometry">
            <mxPoint x="95" y="150" as="sourcePoint" />
            <mxPoint x="95" y="220" as="targetPoint" />
          </mxGeometry>
        </mxCell>
        <mxCell id="-bUngEK1YWI-_UwskpIQ-18" value="" style="endArrow=classic;html=1;rounded=0;exitX=0.75;exitY=0;exitDx=0;exitDy=0;entryX=0.75;entryY=1;entryDx=0;entryDy=0;" edge="1" parent="1" source="-bUngEK1YWI-_UwskpIQ-12" target="-bUngEK1YWI-_UwskpIQ-16">
          <mxGeometry width="50" height="50" relative="1" as="geometry">
            <mxPoint x="410" y="330" as="sourcePoint" />
            <mxPoint x="460" y="280" as="targetPoint" />
          </mxGeometry>
        </mxCell>
        <mxCell id="-bUngEK1YWI-_UwskpIQ-19" value="&lt;div&gt;message&amp;nbsp;&lt;/div&gt;&lt;div&gt;(content,&lt;/div&gt;&lt;div&gt;sender,&lt;/div&gt;&lt;div&gt;recipient,&lt;br&gt;&lt;/div&gt;&lt;div&gt;time sent)&lt;br&gt;&lt;/div&gt;" style="text;html=1;align=center;verticalAlign=middle;resizable=0;points=[];autosize=1;strokeColor=none;fillColor=none;" vertex="1" parent="1">
          <mxGeometry x="20" y="140" width="80" height="90" as="geometry" />
        </mxCell>
        <mxCell id="-bUngEK1YWI-_UwskpIQ-20" value="message received" style="text;html=1;align=center;verticalAlign=middle;resizable=0;points=[];autosize=1;strokeColor=none;fillColor=none;" vertex="1" parent="1">
          <mxGeometry x="200" y="170" width="120" height="30" as="geometry" />
        </mxCell>
        <mxCell id="-bUngEK1YWI-_UwskpIQ-21" value="message" style="text;html=1;align=center;verticalAlign=middle;whiteSpace=wrap;rounded=0;" vertex="1" parent="1">
          <mxGeometry x="160" y="330" width="60" height="30" as="geometry" />
        </mxCell>
        <mxCell id="-bUngEK1YWI-_UwskpIQ-22" value="P0" style="swimlane;whiteSpace=wrap;html=1;startSize=23;" vertex="1" parent="1">
          <mxGeometry x="50" y="220" width="200" height="80" as="geometry" />
        </mxCell>
        <mxCell id="-bUngEK1YWI-_UwskpIQ-23" value="P1" style="swimlane;whiteSpace=wrap;html=1;startSize=23;" vertex="1" parent="1">
          <mxGeometry x="50" y="380" width="200" height="80" as="geometry" />
        </mxCell>
      </root>
    </mxGraphModel>
  </diagram>
</mxfile>
